<svg xmlns="http://www.w3.org/2000/svg" width="260" height="105" viewBox="0 0 260 105" role="img" aria-label="JTRT Solutions">
  <g fill="none" stroke="#5d82c8" stroke-width="4" stroke-linecap="round" stroke-linejoin="round">
    <path d="M2 67c0-18 16-32 36-32 8-18 27-31 49-31 19 0 36 9 46 23 32 1 58 21 58 46 0 16-11 30-28 38H34C15 105 2 89 2 67z" transform="scale(1.32 .88)"/>
    <path d="M30 59h29l15-15h83"/>
    <path d="M158 35h59"/>
    <path d="M62 75h23"/>
    <path d="M156 75h80"/>
    <path d="M76 44v27"/>
    <path d="M112 35v34"/>
    <circle cx="43" cy="59" r="6" fill="white"/>
    <circle cx="132" cy="25" r="6" fill="white"/>
    <circle cx="151" cy="91" r="6" fill="white"/>
    <circle cx="211" cy="75" r="6" fill="white"/>
  </g>
  <text x="82" y="67" font-family="Arial, Helvetica, sans-serif" font-size="40" font-weight="700" fill="#5d82c8">JTRT</text>
  <text x="62" y="89" font-family="Arial, Helvetica, sans-serif" font-size="25" font-weight="700" fill="#5d82c8">Solutions</text>
</svg>
